<?xml version="1.0" encoding="UTF-8"?><svg id="Vrstva_1" xmlns="http://www.w3.org/2000/svg" viewBox="0 0 32 32"><defs><style>.cls-1{fill:#0f573f;}.cls-1,.cls-2{stroke-width:0px;}.cls-2{fill:#d2bdb0;}</style></defs><rect class="cls-2" y="-.08" width="32.08" height="32.08"/><path class="cls-1" d="M2.36,23.13v-.22l9.69-13.44h-3.32c-3.38,0-4.4,1.7-5.47,4.15l-.44-.1.86-4.65h11.17v.22l-9.57,13.44h3.81c3.74,0,5.01-2.74,5.49-4.35l.44.08-.92,4.87H2.36Z"/><path class="cls-1" d="M15.62,23.13v-.56c2.18-.06,2.24-.52,2.24-4.37v-4.37c0-3.85-.06-4.31-2.24-4.39v-.56h6.81v.56c-2.22.08-2.46.54-2.46,4.39v4.37c0,3.97.24,4.33,3.52,4.33h.06c3.54,0,4.91-2.32,5.63-4.49l.46.1-.96,4.99h-13.06Z"/></svg>