<?xml version="1.0" encoding="UTF-8"?><svg id="Vrstva_1" xmlns="http://www.w3.org/2000/svg" viewBox="0 0 44 44"><defs><style>.cls-1{fill:#11624a;stroke-width:0px;}</style></defs><path class="cls-1" d="M36.24,2c3.18,0,5.76,2.58,5.76,5.76v28.48c0,3.18-2.58,5.76-5.76,5.76H7.76c-3.18,0-5.76-2.58-5.76-5.76V7.76c0-3.18,2.58-5.76,5.76-5.76h28.48M36.24,0H7.76C3.48,0,0,3.48,0,7.76v28.48c0,4.29,3.48,7.76,7.76,7.76h28.48c4.29,0,7.76-3.48,7.76-7.76V7.76c0-4.29-3.48-7.76-7.76-7.76h0Z"/><path class="cls-1" d="M31.6,7.71c1.99,0,3.41.13,4.17.21v4.27h-2.64c-1.43,0-2.49.37-3.12,1.12-.63.75-.76,1.71-.76,2.7v4.78h6.19l-.63,4.9h-5.55v16.29h-5.11v-16.29h-5.48v-4.9h5.48v-5.41c0-2.57.77-4.45,2.05-5.72,1.28-1.27,3.11-1.95,5.39-1.95M31.6,5.71c-2.78,0-5.13.87-6.8,2.53-1.73,1.71-2.64,4.17-2.64,7.14v3.41h-5.48v8.9h5.48v16.29h9.11v-16.29h5.31l.23-1.74.63-4.9.29-2.26h-6.46v-2.78c0-.74.09-1.18.28-1.41.22-.26.8-.4,1.59-.4h2.64s2,0,2,0V6.12l-1.79-.19c-.53-.05-2.13-.22-4.38-.22h0Z"/></svg>