<?xml version="1.0" encoding="UTF-8"?><svg id="Vrstva_1" xmlns="http://www.w3.org/2000/svg" xmlns:xlink="http://www.w3.org/1999/xlink" viewBox="0 0 44 44"><defs><style>.cls-1{fill:url(#Nepojmenovaný_přechod_15);}.cls-1,.cls-2,.cls-3{stroke-width:0px;}.cls-2{fill:#0f573f;}.cls-3{fill:#d2bdb0;}</style><linearGradient id="Nepojmenovaný_přechod_15" x1="22" y1="43" x2="22" y2="1" gradientUnits="userSpaceOnUse"><stop offset="0" stop-color="#0f573f" stop-opacity=".6"/><stop offset=".28" stop-color="rgba(33,99,77,.55)" stop-opacity=".55"/><stop offset=".55" stop-color="rgba(88,138,121,.42)" stop-opacity=".42"/><stop offset=".83" stop-color="rgba(180,202,195,.19)" stop-opacity=".19"/><stop offset="1" stop-color="#fff" stop-opacity="0"/></linearGradient></defs><rect class="cls-1" x="1" y="1" width="42" height="42" rx="6.76" ry="6.76"/><path class="cls-2" d="M36.24,2c3.18,0,5.76,2.58,5.76,5.76v28.48c0,3.18-2.58,5.76-5.76,5.76H7.76c-3.18,0-5.76-2.58-5.76-5.76V7.76c0-3.18,2.58-5.76,5.76-5.76h28.48M36.24,0H7.76C3.48,0,0,3.48,0,7.76v28.48c0,4.29,3.48,7.76,7.76,7.76h28.48c4.29,0,7.76-3.48,7.76-7.76V7.76c0-4.29-3.48-7.76-7.76-7.76h0Z"/><path class="cls-3" d="M23.16,42.98v-16.29h-5.48v-6.9h5.48v-4.41c0-2.73.79-4.89,2.35-6.43,1.48-1.46,3.58-2.24,6.09-2.24,2.21,0,3.77.16,4.28.22l.9.09v6.17h-3.63c-1.14,0-1.93.26-2.35.76-.37.43-.52,1.05-.52,2.06v3.78h6.32l-.89,6.9h-5.43v16.29h-7.11Z"/><path class="cls-2" d="M31.6,7.71c1.99,0,3.41.13,4.17.21v4.27h-2.64c-1.43,0-2.49.37-3.12,1.12-.63.75-.76,1.71-.76,2.7v4.78h6.19l-.63,4.9h-5.55v16.29h-5.11v-16.29h-5.48v-4.9h5.48v-5.41c0-2.57.77-4.45,2.05-5.72,1.28-1.27,3.11-1.95,5.39-1.95M31.6,5.71c-2.78,0-5.13.87-6.8,2.53-1.73,1.71-2.64,4.17-2.64,7.14v3.41h-5.48v8.9h5.48v16.29h9.11v-16.29h5.31l.23-1.74.63-4.9.29-2.26h-6.46v-2.78c0-.74.09-1.18.28-1.41.22-.26.8-.4,1.59-.4h2.64s2,0,2,0V6.12l-1.79-.19c-.53-.05-2.12-.22-4.38-.22h0Z"/></svg>