<?xml version="1.0" encoding="UTF-8"?><svg id="Vrstva_1" xmlns="http://www.w3.org/2000/svg" viewBox="0 0 45.5 45.5"><defs><style>.cls-1{stroke-width:2.03px;}.cls-1,.cls-2{fill:none;stroke:#11624a;stroke-miterlimit:10;}.cls-3{fill:#11624a;stroke-width:0px;}.cls-2{stroke-width:2px;}</style></defs><path class="cls-3" d="M22.75,2c11.46,0,20.75,9.29,20.75,20.75s-9.29,20.75-20.75,20.75S2,34.21,2,22.75,11.29,2,22.75,2M22.75,0C10.21,0,0,10.21,0,22.75s10.21,22.75,22.75,22.75,22.75-10.21,22.75-22.75S35.3,0,22.75,0h0Z"/><line class="cls-2" x1="2" y1="22.75" x2="43.48" y2="22.75"/><line class="cls-2" x1="22.58" y1="2.01" x2="22.58" y2="43.49"/><ellipse class="cls-1" cx="22.58" cy="22.83" rx="10.5" ry="21.44"/><path class="cls-2" d="M38.95,9.78c-3.8,2.4-9.64,3.93-16.19,3.93s-12.39-1.54-16.19-3.93"/><path class="cls-2" d="M38.95,36.26c-3.8-2.4-9.64-3.93-16.19-3.93s-12.39,1.54-16.19,3.93"/></svg>