<?xml version="1.0" encoding="UTF-8"?><svg id="Vrstva_1" xmlns="http://www.w3.org/2000/svg" viewBox="0 0 365.79 58.88"><defs><style>.cls-1{fill:#11624a;stroke-width:0px;}</style></defs><path class="cls-1" d="M0,57.53v-.74L32.75,11.34h-11.21c-11.41,0-14.85,5.74-18.5,14.04l-1.49-.34,2.9-15.73h37.74v.74L9.86,55.5h12.9c12.63,0,16.95-9.25,18.57-14.72l1.49.27-3.11,16.48H0Z"/><path class="cls-1" d="M45.84,57.53v-1.89c6.35-.2,7.36-.68,7.36-11.55v-11.95c0-10.47-.74-11.34-7.36-11.61v-1.82h21.74v1.82c-6.89.2-7.36,1.42-7.36,11.95v11.55c0,10.53.81,11.48,9.25,11.48h.07c6.89,0,12.49-6.28,14.45-12.49l1.69.34-2.84,14.18h-37Z"/><path class="cls-1" d="M87.7,57.53v-1.89c4.66-.13,5.54-.95,9.45-10.74l10.74-27.08h2.09l10.6,27.62c3.65,9.45,4.25,9.99,8.91,10.2v1.89h-18.3v-1.89c6.35-.13,5.33-.2,1.96-9.66l-.47-1.28h-12.9l-.13.34c-3.65,9.52-4.12,10.33,2.63,10.6v1.89h-14.58ZM111.94,42.67l-5.47-15.33-5.94,15.33h11.41Z"/><path class="cls-1" d="M135.97,57.53v-1.89c7.29-.2,7.36-1.69,7.36-12.22v-22.69h-1.22c-8.44,0-11.21,2.63-13.84,11.82l-1.49-.14,1.01-13.71h38.22l1.01,13.71-1.49.14c-2.63-9.18-5.6-11.82-13.98-11.82h-1.22v22.69c0,10.53.07,12.02,7.36,12.22v1.89h-21.74Z"/><path class="cls-1" d="M164.33,57.53v-1.89c4.66-.13,5.54-.95,9.45-10.74l10.74-27.08h2.09l10.6,27.62c3.65,9.45,4.25,9.99,8.91,10.2v1.89h-18.3v-1.89c6.35-.13,5.33-.2,1.96-9.66l-.47-1.28h-12.9l-.14.34c-3.65,9.52-4.12,10.33,2.63,10.6v1.89h-14.58ZM188.57,42.67l-5.47-15.33-5.94,15.33h11.41ZM182.36,15.06l-1.15-.95c2.23-3.31,3.51-6.48,5.2-9.93,1.42-2.9,3.04-4.19,5-4.19,1.69,0,2.84,1.35,2.84,2.9,0,1.76-.95,3.24-2.97,4.93-3.04,2.43-6.01,4.19-8.91,7.22Z"/><path class="cls-1" d="M232.11,57.53v-1.89c6.35-.2,7.36-.68,7.36-11.55v-11.95c0-10.47-.74-11.34-7.36-11.61v-1.82h21.74v1.82c-6.89.2-7.36,1.42-7.36,11.95v11.55c0,10.53.81,11.48,9.25,11.48h.07c6.89,0,12.49-6.28,14.45-12.49l1.69.34-2.84,14.18h-37Z"/><path class="cls-1" d="M297.67,58.88c-11.75,0-21.34-7.9-21.34-20.53s9.59-20.66,21.34-20.66,21.34,7.9,21.34,20.66-9.59,20.53-21.34,20.53ZM297.67,56.85c8.3,0,13.44-6.82,13.44-18.5s-5.13-18.64-13.44-18.64-13.44,6.82-13.44,18.64,5.13,18.5,13.44,18.5Z"/><path class="cls-1" d="M339.53,57.73l-15.8-.2v-1.89c6.82-.13,7.36-1.35,7.36-11.88v-11.28c0-10.53-.54-11.75-7.36-11.95v-1.82l15.12-.34c17.29-.41,26.94,5.6,26.94,19.51,0,13.1-8.91,20.05-26.27,19.85ZM345,15.06c-.54,0-.81-.27-1.69-1.35l-9.72-12.76.88-.95,10.53,7.56,10.53-7.56.88.95-9.72,12.76c-.88,1.08-1.15,1.35-1.69,1.35ZM338.11,55.64h5.54c8.44,0,14.65-6.48,14.65-17.62,0-11.95-7.09-17.62-15.33-17.49l-4.86.07v35.04Z"/></svg>