<?xml version="1.0" encoding="UTF-8"?><svg id="Vrstva_1" xmlns="http://www.w3.org/2000/svg" viewBox="0 0 365.79 117.03"><defs><style>.cls-1{fill:#0f573f;stroke-width:0px;}</style></defs><path class="cls-1" d="M0,57.53v-.74L32.75,11.34h-11.21c-11.41,0-14.85,5.74-18.5,14.04l-1.49-.34,2.9-15.73h37.74v.74L9.86,55.5h12.9c12.63,0,16.95-9.25,18.57-14.72l1.49.27-3.11,16.47H0Z"/><path class="cls-1" d="M45.84,57.53v-1.89c6.35-.2,7.36-.67,7.36-11.55v-11.95c0-10.46-.74-11.34-7.36-11.61v-1.82h21.74v1.82c-6.89.2-7.36,1.42-7.36,11.95v11.55c0,10.53.81,11.48,9.25,11.48h.07c6.89,0,12.49-6.28,14.45-12.49l1.69.34-2.84,14.18h-37Z"/><path class="cls-1" d="M87.7,57.53v-1.89c4.66-.13,5.54-.95,9.45-10.74l10.74-27.08h2.09l10.6,27.62c3.65,9.45,4.25,9.99,8.91,10.2v1.89h-18.3v-1.89c6.35-.13,5.33-.2,1.96-9.66l-.47-1.28h-12.9l-.14.34c-3.65,9.52-4.12,10.33,2.63,10.6v1.89h-14.58ZM111.94,42.67l-5.47-15.33-5.94,15.33h11.41Z"/><path class="cls-1" d="M135.97,57.53v-1.89c7.29-.2,7.36-1.69,7.36-12.22v-22.69h-1.22c-8.44,0-11.21,2.63-13.84,11.82l-1.49-.13,1.01-13.71h38.22l1.01,13.71-1.49.13c-2.63-9.18-5.6-11.82-13.98-11.82h-1.22v22.69c0,10.53.07,12.02,7.36,12.22v1.89h-21.74Z"/><path class="cls-1" d="M164.33,57.53v-1.89c4.66-.13,5.54-.95,9.45-10.74l10.74-27.08h2.09l10.6,27.62c3.65,9.45,4.25,9.99,8.91,10.2v1.89h-18.3v-1.89c6.35-.13,5.33-.2,1.96-9.66l-.47-1.28h-12.9l-.14.34c-3.65,9.52-4.12,10.33,2.63,10.6v1.89h-14.58ZM188.57,42.67l-5.47-15.33-5.94,15.33h11.41ZM182.36,15.06l-1.15-.95c2.23-3.31,3.51-6.48,5.2-9.93,1.42-2.9,3.04-4.19,5-4.19,1.69,0,2.84,1.35,2.84,2.9,0,1.76-.95,3.24-2.97,4.93-3.04,2.43-6.01,4.19-8.91,7.22Z"/><path class="cls-1" d="M232.11,57.53v-1.89c6.35-.2,7.36-.67,7.36-11.55v-11.95c0-10.46-.74-11.34-7.36-11.61v-1.82h21.74v1.82c-6.89.2-7.36,1.42-7.36,11.95v11.55c0,10.53.81,11.48,9.25,11.48h.07c6.89,0,12.49-6.28,14.45-12.49l1.69.34-2.84,14.18h-37Z"/><path class="cls-1" d="M297.67,58.88c-11.75,0-21.34-7.9-21.34-20.53s9.59-20.66,21.34-20.66,21.34,7.9,21.34,20.66-9.59,20.53-21.34,20.53ZM297.67,56.85c8.3,0,13.44-6.82,13.44-18.5s-5.13-18.63-13.44-18.63-13.44,6.82-13.44,18.63,5.13,18.5,13.44,18.5Z"/><path class="cls-1" d="M339.53,57.73l-15.8-.2v-1.89c6.82-.13,7.36-1.35,7.36-11.88v-11.28c0-10.53-.54-11.75-7.36-11.95v-1.82l15.12-.34c17.29-.41,26.94,5.6,26.94,19.51,0,13.1-8.91,20.05-26.27,19.85ZM345,15.06c-.54,0-.81-.27-1.69-1.35l-9.72-12.76.88-.95,10.53,7.56,10.53-7.56.88.95-9.72,12.76c-.88,1.08-1.15,1.35-1.69,1.35ZM338.11,55.64h5.54c8.44,0,14.65-6.48,14.65-17.62,0-11.95-7.09-17.62-15.33-17.49l-4.86.07v35.04Z"/><path class="cls-1" d="M17.2,102.36c0-3.74,5.58-10.53,5.58-13.42,0-.82-.43-1.4-1.17-1.4-1.4,0-2.46,1.33-3.04,3.16l-1.13-.43c.94-3.08,3-4.95,5.66-4.95,2.11,0,3.43,1.33,3.43,3.16,0,3.78-5.38,9.71-5.38,13.65,0,1.83.58,2.42,2.34,2.42,4.33,0,11.43-7.57,11.43-13.03,0-.82-.66-1.21-1.72-1.21-1.17,0-2.38-.97-2.38-2.38s1.09-2.61,2.85-2.61c2.15,0,3.08,2.38,3.08,3.9,0,7.88-7.57,17.08-15.37,17.08-2.81,0-4.17-1.29-4.17-3.94Z"/><path class="cls-1" d="M31.43,112.81c0-1.83,1.25-2.85,2.65-2.85,1.21,0,2.3.82,2.3,1.95,0,1.6-1.44,1.72-1.44,2.77,0,.74.7,1.09,1.99,1.09,2.26,0,3.74-1.09,8.39-7.1l.9-1.17-1.05-14.59c-.23-3.28-.7-5.38-2.3-5.38-1.25,0-2.5,1.33-3.39,3.16l-1.05-.39c1.4-3.08,3.71-4.99,6.28-4.99,3.12,0,3.78,2.42,4.13,6.16l1.01,11.31,2.54-3.28c3.47-4.48,4.56-6.67,4.56-8.03s-2.22-1.21-2.22-3.59c0-1.48,1.13-2.57,2.73-2.57s2.65,1.13,2.65,2.92-1.29,4.56-3.71,7.88l-9.98,13.53c-4.21,5.69-6.47,7.37-9.63,7.37s-5.34-1.4-5.34-4.21ZM56.39,76.27c1.09-1.79,1.87-2.42,2.93-2.42.94,0,1.56.66,1.56,1.56,0,.74-.59,1.64-2.22,2.89-1.87,1.33-3.43,2.42-5.34,4.1l-.62-.58c1.48-1.79,2.5-3.63,3.71-5.54Z"/><path class="cls-1" d="M62.47,102.28c0-1.95.55-3.59,3.59-11.08.74-1.83.62-3.47-3.39-3.47l.35-1.09c6.08-.31,7.92-3.35,10.96-10.06h1.44l-3.74,9.56c2.15-.04,4.25-.08,6.4-.12l-.58,1.95c-2.15-.12-4.33-.16-6.51-.12l-4.02,10.1c-.47,1.17-.7,2.26-.7,3.16,0,1.83.82,2.96,2.65,2.96s3.55-1.09,5.15-4.6l1.05.43c-1.52,4.17-4.64,6.4-8.19,6.4-2.93,0-4.45-1.83-4.45-4.02Z"/><path class="cls-1" d="M78.78,102.36c0-3.74,5.58-10.53,5.58-13.42,0-.82-.43-1.4-1.17-1.4-1.4,0-2.46,1.33-3.04,3.16l-1.13-.43c.94-3.08,3-4.95,5.66-4.95,2.11,0,3.43,1.33,3.43,3.16,0,3.78-5.38,9.71-5.38,13.65,0,1.83.58,2.42,2.34,2.42,4.33,0,11.43-7.57,11.43-13.03,0-.82-.66-1.21-1.72-1.21-1.17,0-2.38-.97-2.38-2.38s1.09-2.61,2.85-2.61c2.15,0,3.08,2.38,3.08,3.9,0,7.88-7.57,17.08-15.37,17.08-2.81,0-4.17-1.29-4.17-3.94Z"/><path class="cls-1" d="M99.83,99.36c0-6.2,5.58-14.04,12.99-14.04,2.77,0,4.17,1.75,4.76,3.82l1.13-3.28c.58.2,1.33.31,2.03.31s1.4-.12,1.99-.31l-5.07,11.97c-.78,1.87-1.29,3.47-1.29,4.33,0,1.17.51,1.83,1.37,1.83,1.33,0,2.5-1.64,3.39-3.63l1.13.58c-1.17,2.96-3.59,5.34-6.28,5.34-2.03,0-3.51-1.25-3.71-3.04-1.68,1.68-3.82,3.04-6.08,3.04-3.39,0-6.36-2.07-6.36-6.94ZM116.14,91.09c0-2.89-1.33-4.41-3.39-4.41-4.56,0-8.7,6.75-8.7,12.79,0,3.55,1.01,5.15,3.2,5.15,3.9,0,8.89-7.61,8.89-13.53Z"/><path class="cls-1" d="M126.67,105.44c-.74,0-1.48.08-2.26.27l4.33-9.75c1.56-3.47,2.61-5.77,2.61-6.98,0-.9-.51-1.44-1.44-1.44-1.44,0-2.5,1.44-3.04,3.16l-1.09-.43c.78-3,3-4.95,5.58-4.95,1.95,0,3.47.98,3.47,3.12,0,.9-.27,1.87-.66,2.85,1.72-2.69,4.49-5.97,7.49-5.97,1.79,0,2.96,1.09,2.96,2.85,0,1.64-1.13,3.12-2.93,3.12-2.03,0-2.89-1.48-2.34-3.43-2.22.35-6.28,6.04-8.74,12.95l-1.56,4.99c-.74-.23-1.56-.35-2.38-.35Z"/><path class="cls-1" d="M146.56,105.44c-.74,0-1.48.08-2.26.27l4.33-9.75c1.56-3.47,2.61-5.77,2.61-6.98,0-.9-.51-1.44-1.44-1.44-1.44,0-2.5,1.44-3.04,3.16l-1.09-.43c.78-3,3-4.95,5.58-4.95,1.95,0,3.47.98,3.47,3.12,0,1.13-.43,2.34-.98,3.59,2.42-3.39,5.66-6.71,9.52-6.71,3.08,0,4.68,1.95,4.68,3.94,0,3.51-4.95,8.85-4.95,12.91,0,1.17.51,1.83,1.37,1.83,1.33,0,2.5-1.64,3.39-3.63l1.13.58c-1.17,2.96-3.59,5.34-6.28,5.34-2.54,0-3.74-1.44-3.74-3.43,0-4.21,4.95-9.98,4.95-13.14,0-1.37-.58-2.14-1.95-2.14-3.94,0-9.05,6.32-11.27,13.03v-.04l-1.64,5.23c-.74-.23-1.56-.35-2.38-.35Z"/><path class="cls-1" d="M171.71,98.73c0-7.72,6.16-13.42,12.91-13.42,3.12,0,5.38,1.75,5.38,4.13,0,4.8-7.14,7.45-13.81,6.86-.16,1.01-.27,2.03-.27,3,0,3.12.74,5.07,4.13,5.07,2.77,0,5.11-1.76,6.4-4.17l1.09.7c-1.64,2.85-4.6,5.38-8.78,5.38s-7.06-2.96-7.06-7.57ZM176.47,95.15c5.34.39,9.48-1.95,9.48-6.2,0-1.56-.74-2.46-2.07-2.46-3.31,0-6.24,4.06-7.41,8.66ZM188.72,76.27c1.09-1.79,1.87-2.42,2.92-2.42.94,0,1.56.66,1.56,1.56,0,.74-.58,1.64-2.22,2.89-1.87,1.33-3.43,2.42-5.34,4.1l-.62-.58c1.48-1.79,2.5-3.63,3.71-5.54Z"/><path class="cls-1" d="M204.16,107.12l4.64-11.31c1.44-3.55,2.42-5.62,2.42-6.79,0-.94-.55-1.48-1.44-1.48-1.48,0-2.5,1.48-3.04,3.16l-1.09-.43c.78-2.96,3-4.95,5.58-4.95,1.79,0,3.24.94,3.24,2.73,0,.27-.04.58-.16.94,1.95-2.14,4.68-3.67,7.1-3.67,3.51,0,6.36,2.07,6.36,6.94,0,6.24-5.69,14.04-12.79,14.04-3.32,0-4.99-1.56-5.66-3.39l-1.56,4.17c-2.77,7.49-3.71,8.11,3.59,8.27l-.35,1.09h-15.95l.35-1.09c4.88-.16,5.81-1.05,8.77-8.23ZM223.58,92.14c0-3.04-.94-5.15-3.08-5.15-4.06,0-7.25,5.3-8.39,8.23-2.18,5.62-.74,9.52,2.5,9.52,5.11,0,8.97-6.83,8.97-12.6Z"/><path class="cls-1" d="M229.94,98.5c0-6.08,4.88-13.18,12.75-13.18,5.42,0,7.68,3.59,7.68,7.8,0,6.08-4.88,13.18-12.75,13.18-5.42,0-7.68-3.59-7.68-7.8ZM246.16,92.03c0-3.55-1.44-5.54-3.82-5.54-4.72,0-8.19,7.72-8.19,13.1,0,3.55,1.44,5.54,3.82,5.54,4.72,0,8.19-7.72,8.19-13.1Z"/><path class="cls-1" d="M253.77,102.28c0-1.95.55-3.59,3.59-11.08.74-1.83.62-3.47-3.39-3.47l.35-1.09c6.08-.31,7.92-3.35,10.96-10.06h1.44l-3.74,9.56c2.15-.04,4.25-.08,6.4-.12l-.58,1.95c-2.15-.12-4.33-.16-6.51-.12l-4.02,10.1c-.47,1.17-.7,2.26-.7,3.16,0,1.83.82,2.96,2.65,2.96s3.55-1.09,5.15-4.6l1.05.43c-1.52,4.17-4.64,6.4-8.19,6.4-2.93,0-4.45-1.83-4.45-4.02Z"/><path class="cls-1" d="M271.24,105.44c-.74,0-1.48.08-2.26.27l4.33-9.75c1.56-3.47,2.61-5.77,2.61-6.98,0-.9-.51-1.44-1.44-1.44-1.44,0-2.5,1.44-3.04,3.16l-1.09-.43c.78-3,3-4.95,5.58-4.95,1.95,0,3.47.98,3.47,3.12,0,.9-.27,1.87-.66,2.85,1.72-2.69,4.48-5.97,7.49-5.97,1.79,0,2.96,1.09,2.96,2.85,0,1.64-1.13,3.12-2.93,3.12-2.03,0-2.89-1.48-2.34-3.43-2.22.35-6.28,6.04-8.74,12.95l-1.56,4.99c-.74-.23-1.56-.35-2.38-.35ZM281.88,81.77l-2.85-7.53.51-.39,4.29,4.37,8.11-4.37.35.55-8.46,7.37c-.62.55-.98.78-1.25.78s-.43-.08-.7-.78Z"/><path class="cls-1" d="M288.98,98.73c0-7.72,6.16-13.42,12.91-13.42,3.12,0,5.38,1.75,5.38,4.13,0,4.8-7.14,7.45-13.81,6.86-.16,1.01-.27,2.03-.27,3,0,3.12.74,5.07,4.13,5.07,2.77,0,5.11-1.76,6.4-4.17l1.09.7c-1.64,2.85-4.6,5.38-8.77,5.38s-7.06-2.96-7.06-7.57ZM293.74,95.15c5.34.39,9.48-1.95,9.48-6.2,0-1.56-.74-2.46-2.07-2.46-3.31,0-6.24,4.06-7.41,8.66Z"/><path class="cls-1" d="M308.56,100.02c0-5.58,8.11-19.03,8.27-21.61.08-1.37-1.17-1.6-4.33-1.6l.35-1.09c3.35-.08,6.71-.2,10.06-.35-1.05,1.48-3.94,7.37-6.4,12.48,1.76-1.56,3.86-2.54,5.85-2.54,3.55,0,6.4,2.07,6.4,6.94,0,6.24-5.69,14.04-13.22,14.04-4.21,0-6.98-2.5-6.98-6.28ZM324.59,92.14c0-3.04-.94-5.15-3.08-5.15-4.06,0-7.25,5.3-8.39,8.23-2.07,5.3-.94,9.52,2.5,9.52,5.11,0,8.97-6.83,8.97-12.6Z"/><path class="cls-1" d="M323.03,112.81c0-1.83,1.25-2.85,2.65-2.85,1.21,0,2.3.82,2.3,1.95,0,1.6-1.44,1.72-1.44,2.77,0,.74.7,1.09,1.99,1.09,2.26,0,3.74-1.09,8.39-7.1l.9-1.17-1.05-14.59c-.23-3.28-.7-5.38-2.3-5.38-1.25,0-2.5,1.33-3.39,3.16l-1.05-.39c1.4-3.08,3.71-4.99,6.28-4.99,3.12,0,3.78,2.42,4.13,6.16l1.01,11.31,2.54-3.28c3.47-4.48,4.56-6.67,4.56-8.03s-2.22-1.21-2.22-3.59c0-1.48,1.13-2.57,2.73-2.57s2.65,1.13,2.65,2.92-1.29,4.56-3.71,7.88l-9.98,13.53c-4.21,5.69-6.47,7.37-9.63,7.37s-5.34-1.4-5.34-4.21Z"/></svg>